<svg width="92" height="97" viewBox="0 0 92 97" fill="none" xmlns="http://www.w3.org/2000/svg">
<path fill-rule="evenodd" clip-rule="evenodd" d="M71.8157 58.6805C65.0081 61.282 57.157 62.4819 50.1586 62.4819C33.2032 62.4819 16.8637 46.3586 16.8637 29.4032C16.8637 19.0612 21.9007 10.552 29.7245 5.09805C18.9021 11.0563 11.6749 21.6173 11.6749 34.8082C11.6749 54.0323 27.2591 69.6165 46.4832 69.6165C56.4667 69.6165 65.4685 65.4135 71.8157 58.6805Z" fill="white"/>
<g filter="url(#filter0_d_8_439)">
<path d="M69.4005 68.5355C69.4005 71.1624 50.8891 74.3729 36.3218 74.3729C21.7545 74.3729 9.94531 72.2434 9.94531 69.6165C9.94531 66.9896 21.7545 64.8601 36.3218 64.8601C55.9961 64.8601 71.3463 64.8601 69.4005 68.5355Z" fill="white"/>
</g>
<path d="M79.562 34.8083C79.562 53.0772 64.7522 67.887 46.4833 67.887C28.3917 67.887 14.918 51.9675 14.918 33.5111C14.918 15.2636 29.2562 1.72961 46.4833 1.72961C64.7521 1.72961 79.562 16.5395 79.562 34.8083Z" stroke="white" stroke-width="3.45921"/>
<path d="M6.51616 96.3183H3.31082L3.31082 87.0756H0.413853L0.413853 84.4545H9.40501V87.0756H6.51616L6.51616 96.3183ZM18.9756 96.3183H11.932L11.932 84.4545H18.9756V87.0269H15.1373V88.8933H18.6916V91.4657H15.1373V93.7053H18.9756L18.9756 96.3183ZM27.1666 86.9133C26.7879 86.9133 26.4498 86.9944 26.1523 87.1567C25.8547 87.3136 25.6005 87.5435 25.3895 87.8465C25.1785 88.1494 25.0162 88.52 24.9026 88.9582C24.7944 89.391 24.7403 89.8833 24.7403 90.4351C24.7403 91.1817 24.835 91.8092 25.0243 92.3177C25.2137 92.8262 25.5004 93.2103 25.8845 93.47C26.274 93.7297 26.7609 93.8595 27.3451 93.8595C27.8753 93.8595 28.3838 93.7865 28.8707 93.6404C29.363 93.4944 29.858 93.3185 30.3557 93.113L30.3557 95.8233C29.831 96.0559 29.2927 96.2236 28.7409 96.3264C28.1945 96.4292 27.6129 96.4806 26.9962 96.4806C25.7087 96.4806 24.6537 96.2263 23.8314 95.7178C23.0146 95.2039 22.4114 94.4925 22.0219 93.5836C21.6378 92.6748 21.4457 91.6198 21.4457 90.4189C21.4457 89.5208 21.5701 88.6985 21.819 87.952C22.0732 87.2054 22.4438 86.5589 22.9307 86.0125C23.4176 85.4607 24.0181 85.0361 24.7322 84.7385C25.4517 84.4356 26.274 84.2841 27.1991 84.2841C27.7725 84.2841 28.3757 84.3517 29.0087 84.487C29.647 84.6168 30.2692 84.8278 30.8751 85.1199L29.8932 87.6436C29.4604 87.438 29.0222 87.2649 28.5786 87.1243C28.135 86.9836 27.6643 86.9133 27.1666 86.9133ZM43.6753 96.3183H40.4537V91.4819H36.7291V96.3183H33.5075V84.4545H36.7291V88.8527H40.4537V84.4545H43.6753V96.3183ZM58.3744 96.3183H54.1709L49.8376 87.9601H49.7646C49.7917 88.2144 49.816 88.52 49.8376 88.8771C49.8593 89.2341 49.8782 89.5993 49.8945 89.9726C49.9107 90.3404 49.9188 90.6731 49.9188 90.9707V96.3183L47.0786 96.3183V84.4545H51.2658L55.5829 92.6991H55.6316C55.6154 92.4394 55.5991 92.1392 55.5829 91.7984C55.5667 91.4521 55.5504 91.1032 55.5342 90.7516C55.5234 90.3999 55.518 90.0889 55.518 89.8184V84.4545H58.3744V96.3183ZM72.8706 90.3702C72.8706 91.2844 72.7597 92.1176 72.5379 92.8695C72.3215 93.6161 71.9807 94.2599 71.5154 94.8008C71.0502 95.3418 70.4524 95.7584 69.7221 96.0505C68.9917 96.3372 68.1181 96.4806 67.101 96.4806C66.1056 96.4806 65.2427 96.3372 64.5124 96.0505C63.7875 95.7584 63.1897 95.3445 62.719 94.809C62.2484 94.268 61.8994 93.6215 61.6722 92.8695C61.445 92.1176 61.3314 91.279 61.3314 90.3539C61.3314 89.1205 61.5343 88.0494 61.94 87.1405C62.3512 86.2262 62.9841 85.5202 63.8389 85.0225C64.6936 84.5194 65.7864 84.2679 67.1172 84.2679C68.4697 84.2679 69.5679 84.5194 70.4118 85.0225C71.2612 85.5257 71.8833 86.2343 72.2782 87.1486C72.6731 88.0629 72.8706 89.1367 72.8706 90.3702ZM64.7071 90.3702C64.7071 91.0843 64.7883 91.6983 64.9506 92.2122C65.1129 92.7262 65.3699 93.1211 65.7215 93.397C66.0731 93.6729 66.533 93.8108 67.101 93.8108C67.6907 93.8108 68.1586 93.6729 68.5049 93.397C68.8565 93.1211 69.1081 92.7262 69.2595 92.2122C69.4164 91.6983 69.4949 91.0843 69.4949 90.3702C69.4949 89.299 69.3163 88.4524 68.9593 87.8303C68.6022 87.2081 67.9882 86.8971 67.1172 86.8971C66.5384 86.8971 66.0704 87.0377 65.7134 87.319C65.3617 87.6003 65.1048 88.0007 64.9425 88.52C64.7856 89.0394 64.7071 89.6561 64.7071 90.3702ZM91.5784 84.4545L88.6571 96.3183H84.8675L83.7314 91.1492C83.7098 91.0518 83.6746 90.8868 83.6259 90.6542C83.5826 90.4216 83.5312 90.1565 83.4717 89.8589C83.4176 89.5614 83.3662 89.2693 83.3176 88.9825C83.2743 88.6904 83.2418 88.4443 83.2202 88.2441C83.1985 88.4443 83.1634 88.6904 83.1147 88.9825C83.066 89.2693 83.0119 89.5614 82.9524 89.8589C82.8983 90.1565 82.8442 90.4216 82.7901 90.6542C82.7414 90.8868 82.7062 91.0518 82.6846 91.1492L81.5404 96.3183H77.7508L74.8133 84.4545H77.905L79.1953 90.4026C79.2277 90.5487 79.271 90.757 79.3251 91.0275C79.3846 91.2926 79.4441 91.5847 79.5036 91.9039C79.5685 92.2176 79.628 92.5206 79.6821 92.8127C79.7362 93.1049 79.7741 93.3483 79.7957 93.543C79.839 93.2076 79.8958 92.8262 79.9662 92.3989C80.0419 91.9715 80.123 91.5387 80.2096 91.1005C80.3016 90.6569 80.3881 90.2457 80.4693 89.8671C80.5504 89.4884 80.6207 89.18 80.6803 88.942L81.7271 84.4545H84.6971L85.7114 88.942C85.7655 89.1746 85.8331 89.483 85.9143 89.8671C86.0008 90.2457 86.0874 90.6569 86.174 91.1005C86.2659 91.5441 86.3498 91.9823 86.4255 92.4151C86.5012 92.8425 86.5581 93.2185 86.5959 93.543C86.6284 93.2726 86.6825 92.9317 86.7582 92.5206C86.834 92.104 86.9097 91.701 86.9854 91.3115C87.0666 90.9166 87.1288 90.619 87.1721 90.4189L88.4867 84.4545H91.5784Z" fill="white"/>
<defs>
<filter id="filter0_d_8_439" x="8.21571" y="64.8601" width="63.081" height="12.972" filterUnits="userSpaceOnUse" color-interpolation-filters="sRGB">
<feFlood flood-opacity="0" result="BackgroundImageFix"/>
<feColorMatrix in="SourceAlpha" type="matrix" values="0 0 0 0 0 0 0 0 0 0 0 0 0 0 0 0 0 0 127 0" result="hardAlpha"/>
<feOffset dy="1.72961"/>
<feGaussianBlur stdDeviation="0.864803"/>
<feComposite in2="hardAlpha" operator="out"/>
<feColorMatrix type="matrix" values="0 0 0 0 0 0 0 0 0 0 0 0 0 0 0 0 0 0 0.25 0"/>
<feBlend mode="normal" in2="BackgroundImageFix" result="effect1_dropShadow_8_439"/>
<feBlend mode="normal" in="SourceGraphic" in2="effect1_dropShadow_8_439" result="shape"/>
</filter>
</defs>
</svg>
