<svg width="275" height="273" viewBox="0 0 275 273" fill="none" xmlns="http://www.w3.org/2000/svg">
<rect width="275" height="273" fill="url(#paint0_linear_8_419)"/>
<path fill-rule="evenodd" clip-rule="evenodd" d="M196.086 157.709C180.342 163.725 162.185 166.5 146 166.5C106.788 166.5 69 129.212 69 89.9998C69 66.0822 80.6489 46.4034 98.7428 33.7902C73.7141 47.5696 57 71.9937 57 102.5C57 146.959 93.0411 183 137.5 183C160.588 183 181.407 173.28 196.086 157.709Z" fill="white"/>
<g filter="url(#filter0_d_8_419)">
<path d="M190.5 180.5C190.5 186.575 147.689 194 114 194C80.3106 194 53 189.075 53 183C53 176.925 80.3106 172 114 172C159.5 172 195 172 190.5 180.5Z" fill="white"/>
</g>
<path d="M214 102.5C214 144.75 179.75 179 137.5 179C95.6603 179 64.5 142.183 64.5 99.5C64.5 57.2995 97.6596 26 137.5 26C179.75 26 214 60.2502 214 102.5Z" stroke="white" stroke-width="8"/>
<path d="M45.0694 244H37.6566L37.6566 222.625H30.9569V216.563H51.7504V222.625H45.0694V244ZM73.8839 244H57.5944V216.563H73.8839V222.512H65.0072V226.828H73.2271V232.777H65.0072V237.957H73.8839V244ZM92.827 222.249C91.9513 222.249 91.1693 222.437 90.4812 222.812C89.7931 223.175 89.2051 223.707 88.7171 224.408C88.2292 225.108 87.8539 225.965 87.5911 226.979C87.3409 227.979 87.2158 229.118 87.2158 230.394C87.2158 232.121 87.4347 233.572 87.8726 234.748C88.3105 235.924 88.9736 236.812 89.8619 237.413C90.7627 238.013 91.8887 238.314 93.2399 238.314C94.466 238.314 95.6421 238.145 96.7681 237.807C97.9066 237.469 99.0514 237.063 100.202 236.587V242.855C98.9888 243.393 97.7439 243.781 96.4678 244.019C95.2042 244.256 93.8592 244.375 92.4329 244.375C89.4553 244.375 87.0156 243.787 85.1139 242.611C83.2247 241.423 81.8297 239.777 80.9289 237.676C80.0406 235.574 79.5965 233.134 79.5965 230.357C79.5965 228.28 79.8843 226.378 80.4598 224.651C81.0478 222.925 81.9048 221.43 83.0308 220.166C84.1568 218.89 85.5456 217.908 87.197 217.22C88.861 216.519 90.7627 216.169 92.9021 216.169C94.2283 216.169 95.6233 216.325 97.0871 216.638C98.5634 216.938 100.002 217.426 101.403 218.102L99.1327 223.938C98.1318 223.463 97.1184 223.063 96.0925 222.737C95.0665 222.412 93.9781 222.249 92.827 222.249ZM131.006 244L123.556 244V232.815H114.942V244H107.491V216.563H114.942V226.735H123.556V216.563H131.006V244ZM165 244H155.279L145.258 224.67H145.089C145.151 225.258 145.208 225.965 145.258 226.791C145.308 227.617 145.351 228.461 145.389 229.324C145.426 230.175 145.445 230.945 145.445 231.633V244H138.877V216.563H148.561L158.544 235.63H158.657C158.619 235.029 158.582 234.335 158.544 233.547C158.507 232.746 158.469 231.939 158.432 231.126C158.407 230.313 158.394 229.593 158.394 228.968V216.563H165V244ZM198.525 230.244C198.525 232.358 198.269 234.285 197.756 236.024C197.255 237.751 196.467 239.24 195.391 240.491C194.315 241.742 192.933 242.705 191.244 243.381C189.555 244.044 187.534 244.375 185.182 244.375C182.88 244.375 180.884 244.044 179.195 243.381C177.519 242.705 176.136 241.748 175.048 240.509C173.959 239.258 173.152 237.763 172.627 236.024C172.102 234.285 171.839 232.346 171.839 230.206C171.839 227.354 172.308 224.877 173.246 222.775C174.197 220.66 175.661 219.028 177.638 217.877C179.614 216.713 182.142 216.131 185.219 216.131C188.347 216.131 190.887 216.713 192.839 217.877C194.803 219.04 196.242 220.679 197.155 222.794C198.068 224.908 198.525 227.391 198.525 230.244ZM179.646 230.244C179.646 231.895 179.833 233.315 180.209 234.504C180.584 235.693 181.178 236.606 181.992 237.244C182.805 237.882 183.868 238.201 185.182 238.201C186.546 238.201 187.628 237.882 188.429 237.244C189.242 236.606 189.824 235.693 190.174 234.504C190.537 233.315 190.718 231.895 190.718 230.244C190.718 227.767 190.305 225.809 189.48 224.37C188.654 222.931 187.234 222.212 185.219 222.212C183.881 222.212 182.799 222.537 181.973 223.188C181.16 223.838 180.565 224.764 180.19 225.965C179.827 227.166 179.646 228.593 179.646 230.244ZM241.79 216.563L235.034 244H226.27L223.642 232.046C223.592 231.82 223.511 231.439 223.399 230.901C223.298 230.363 223.18 229.75 223.042 229.062C222.917 228.374 222.798 227.698 222.685 227.035C222.585 226.359 222.51 225.79 222.46 225.327C222.41 225.79 222.329 226.359 222.216 227.035C222.104 227.698 221.979 228.374 221.841 229.062C221.716 229.75 221.591 230.363 221.466 230.901C221.353 231.439 221.272 231.82 221.222 232.046L218.575 244H209.811L203.018 216.563H210.168L213.152 230.319C213.227 230.657 213.327 231.139 213.452 231.764C213.59 232.377 213.727 233.053 213.865 233.791C214.015 234.517 214.153 235.217 214.278 235.893C214.403 236.568 214.491 237.131 214.541 237.582C214.641 236.806 214.772 235.924 214.935 234.936C215.11 233.947 215.298 232.946 215.498 231.933C215.71 230.907 215.911 229.956 216.098 229.08C216.286 228.205 216.449 227.492 216.586 226.941L219.007 216.563H225.876L228.222 226.941C228.347 227.479 228.503 228.192 228.691 229.08C228.891 229.956 229.091 230.907 229.291 231.933C229.504 232.959 229.698 233.972 229.873 234.973C230.048 235.962 230.18 236.831 230.267 237.582C230.342 236.956 230.467 236.168 230.642 235.217C230.818 234.254 230.993 233.322 231.168 232.421C231.356 231.508 231.5 230.819 231.6 230.357L234.64 216.563H241.79Z" fill="white"/>
<defs>
<filter id="filter0_d_8_419" x="49" y="172" width="145.885" height="30" filterUnits="userSpaceOnUse" color-interpolation-filters="sRGB">
<feFlood flood-opacity="0" result="BackgroundImageFix"/>
<feColorMatrix in="SourceAlpha" type="matrix" values="0 0 0 0 0 0 0 0 0 0 0 0 0 0 0 0 0 0 127 0" result="hardAlpha"/>
<feOffset dy="4"/>
<feGaussianBlur stdDeviation="2"/>
<feComposite in2="hardAlpha" operator="out"/>
<feColorMatrix type="matrix" values="0 0 0 0 0 0 0 0 0 0 0 0 0 0 0 0 0 0 0.25 0"/>
<feBlend mode="normal" in2="BackgroundImageFix" result="effect1_dropShadow_8_419"/>
<feBlend mode="normal" in="SourceGraphic" in2="effect1_dropShadow_8_419" result="shape"/>
</filter>
<linearGradient id="paint0_linear_8_419" x1="275" y1="-8.01639e-06" x2="4.93321e-06" y2="273" gradientUnits="userSpaceOnUse">
<stop stop-color="#1D4F91"/>
<stop offset="1" stop-color="#518DDC"/>
</linearGradient>
</defs>
</svg>
